<svg xmlns="http://www.w3.org/2000/svg" viewBox="0 0 900 620">
  <defs>
    <linearGradient id="bg" x1="0" y1="0" x2="1" y2="1">
      <stop offset="0%" stop-color="#091425"/>
      <stop offset="100%" stop-color="#0f2038"/>
    </linearGradient>
    <linearGradient id="blue" x1="0" y1="0" x2="1" y2="0">
      <stop offset="0%" stop-color="#4cc6ff"/>
      <stop offset="100%" stop-color="#1674ea"/>
    </linearGradient>
    <filter id="glow">
      <feGaussianBlur stdDeviation="10" result="blur"/>
      <feMerge>
        <feMergeNode in="blur"/>
        <feMergeNode in="SourceGraphic"/>
      </feMerge>
    </filter>
  </defs>
  <rect width="900" height="620" rx="34" fill="url(#bg)"/>
  <rect x="34" y="34" width="832" height="552" rx="28" fill="#071120" stroke="#18365f" stroke-width="2"/>
  <rect x="62" y="66" width="776" height="30" rx="12" fill="#0b1b31"/>
  <circle cx="88" cy="81" r="6" fill="#52c5ff"/>
  <rect x="106" y="74" width="170" height="14" rx="7" fill="#103458"/>
  <rect x="650" y="72" width="156" height="18" rx="9" fill="#122d4e"/>
  <rect x="84" y="126" width="170" height="362" rx="18" fill="#091625" stroke="#18365f"/>
  <rect x="282" y="126" width="388" height="362" rx="26" fill="#07111d" stroke="#2c5ca3"/>
  <rect x="698" y="126" width="118" height="362" rx="18" fill="#091625" stroke="#18365f"/>
  <g opacity="0.35">
    <path d="M306 286 H646" stroke="#2e5fa4"/>
    <path d="M476 152 V462" stroke="#2e5fa4"/>
    <circle cx="476" cy="306" r="116" fill="none" stroke="#3b8fff" stroke-width="2"/>
    <circle cx="476" cy="306" r="178" fill="none" stroke="#24508c" stroke-width="2"/>
  </g>
  <g filter="url(#glow)">
    <circle cx="604" cy="356" r="12" fill="#ff425f"/>
    <circle cx="504" cy="252" r="9" fill="#5fd8ff"/>
    <circle cx="412" cy="338" r="9" fill="#ff8c9e"/>
  </g>
  <path d="M476 306 L604 356" stroke="url(#blue)" stroke-width="4" opacity="0.9"/>
  <path d="M476 306 L504 252" stroke="#56ffd7" stroke-width="4" opacity="0.9"/>
  <path d="M476 306 L412 338" stroke="#67cfff" stroke-width="4" opacity="0.9"/>
  <rect x="724" y="156" width="66" height="56" rx="12" fill="#0d1d31" stroke="#1d4478"/>
  <rect x="724" y="228" width="66" height="56" rx="12" fill="#0d1d31" stroke="#1d4478"/>
  <rect x="724" y="300" width="66" height="56" rx="12" fill="#0d1d31" stroke="#5f2330"/>
  <rect x="724" y="372" width="66" height="56" rx="12" fill="#0d1d31" stroke="#1d4478"/>
  <rect x="108" y="156" width="126" height="42" rx="10" fill="#0e1d31" stroke="#1d4478"/>
  <rect x="108" y="214" width="126" height="42" rx="10" fill="#0e1d31" stroke="#1d4478"/>
  <rect x="108" y="272" width="126" height="42" rx="10" fill="#0e1d31" stroke="#1d4478"/>
  <rect x="108" y="330" width="126" height="42" rx="10" fill="#0e1d31" stroke="#1d4478"/>
  <rect x="108" y="388" width="126" height="42" rx="10" fill="#0e1d31" stroke="#1d4478"/>
  <rect x="84" y="514" width="732" height="40" rx="16" fill="#0b1729" stroke="#18365f"/>
  <text x="96" y="89" fill="#7fd0ff" font-size="12" font-family="Segoe UI, Arial" letter-spacing="2">VIGILANCE OPS</text>
  <text x="705" y="89" fill="#d6e9ff" font-size="14" font-family="Segoe UI, Arial">20:45:18</text>
  <text x="348" y="548" fill="#7fd0ff" font-size="15" font-family="Segoe UI, Arial" letter-spacing="2">KINSHASA SATELLITE GRID</text>
</svg>
